<?xml version="1.0" encoding="utf-8"?>
<!-- Generator: Adobe Illustrator 25.0.1, SVG Export Plug-In . SVG Version: 6.00 Build 0)  -->
<svg version="1.1" id="Layer_1" xmlns="http://www.w3.org/2000/svg" xmlns:xlink="http://www.w3.org/1999/xlink" x="0px" y="0px"
	 viewBox="0 0 36 36" style="enable-background:new 0 0 36 36;" xml:space="preserve">
<style type="text/css">
	.st0{fill:url(#SVGID_1_);}
	.st1{fill:url(#SVGID_2_);}
	.st2{fill:url(#SVGID_3_);}
</style>
<g>
	<linearGradient id="SVGID_1_" gradientUnits="userSpaceOnUse" x1="25.6416" y1="30.75" x2="10.9191" y2="5.25">
		<stop  offset="8.379889e-03" style="stop-color:#808080"/>
		<stop  offset="0.2179" style="stop-color:#999999"/>
		<stop  offset="0.7877" style="stop-color:#C9C9C9"/>
	</linearGradient>
	<path class="st0" d="M18.28,1L3.56,9.5v17L18.28,35L33,26.5v-17L18.28,1z M31.29,25.51l-13.01,7.51L5.27,25.51V10.49l13.01-7.51
		l13.01,7.51V25.51z"/>
	<linearGradient id="SVGID_2_" gradientUnits="userSpaceOnUse" x1="27.1659" y1="25.8809" x2="16.3115" y2="7.0806">
		<stop  offset="8.379889e-03" style="stop-color:#808080"/>
		<stop  offset="0.2179" style="stop-color:#999999"/>
		<stop  offset="0.7877" style="stop-color:#C9C9C9"/>
	</linearGradient>
	<polygon class="st1" points="29.55,18.96 24.96,18.96 24.96,20.93 27.57,20.93 27.57,23.27 21.08,27.02 21.08,8.88 27.57,12.63 
		27.57,15.09 29.55,15.09 29.55,11.49 19.11,5.47 19.11,30.44 29.55,24.5 	"/>
	<linearGradient id="SVGID_3_" gradientUnits="userSpaceOnUse" x1="20.2409" y1="28.8707" x2="9.4084" y2="10.1083">
		<stop  offset="8.379889e-03" style="stop-color:#808080"/>
		<stop  offset="0.2179" style="stop-color:#999999"/>
		<stop  offset="0.7877" style="stop-color:#C9C9C9"/>
	</linearGradient>
	<polygon class="st2" points="7.01,11.49 7.02,11.51 7.02,11.51 7.02,19 15.46,19 15.46,27.08 9,23.34 9,20.89 7.02,20.89 
		7.02,24.52 7.08,24.52 17.43,30.49 17.44,28.22 17.44,17.03 9,17.03 9,12.63 15.46,8.89 15.46,15.09 17.44,15.09 17.44,5.47 
		15.46,6.61 	"/>
</g>
</svg>
